<svg width="441" height="178" viewBox="0 0 441 178" fill="none" xmlns="http://www.w3.org/2000/svg">
<path d="M21.9998 49.0994H13.1998V86.4994H0.299805V1.39941H13.1998V35.4994H21.9998V1.39941H34.8998V86.5994H21.9998V49.0994Z" fill="#FFF718"/>
<path d="M57.0998 87.4996H54.5998C44.2998 87.4996 38.7998 81.8996 38.7998 71.3996V54.2996H51.5998V69.1996C51.5998 73.0996 52.8998 75.1996 55.7998 75.1996C58.8998 75.1996 59.9998 73.0996 59.9998 67.8996V65.9996C59.9998 59.8996 59.3998 57.7996 54.6998 51.6996L46.5998 40.9996C41.0998 33.8996 39.4998 28.3996 39.4998 19.8996V17.1996C39.4998 5.89961 45.1998 0.599609 55.3998 0.599609H57.7998C68.3998 0.599609 72.5998 5.29961 72.5998 15.3996V29.3996H60.0998V17.0996C60.0998 14.1996 59.4998 12.0996 56.3998 12.0996C53.2998 12.0996 52.5998 13.9996 52.5998 18.0996V19.6996C52.5998 24.4996 53.4998 27.0996 57.8998 32.7996L66.0998 43.3996C71.8998 50.9996 73.7998 55.2996 73.7998 64.8996V67.5996C73.7998 80.0996 68.3998 87.4996 57.0998 87.4996Z" fill="#FFF718"/>
<path d="M106.9 1.39941V13.7994H90.4V36.0994H103.3V48.9994H90.4V73.5994H107.6V86.4994H77.5V1.39941H106.9Z" fill="#FFF718"/>
<path d="M142.5 70.4998H133.1L131.4 86.4998H119.8L130.2 1.2998H145.5L156.6 86.4998H144.1L142.5 70.4998ZM141.1 57.7998L137.7 26.2998L134.4 57.7998H141.1Z" fill="#FFF718"/>
<path d="M171.7 86.5994H158.8V1.39941H179.8C188.4 1.39941 192.7 5.09941 192.7 14.5994V29.6994C192.7 36.7994 189.4 39.4994 187.1 40.5994C190 41.8994 192.7 44.1994 192.7 49.8994V79.7994C192.7 83.1994 193.4 84.7994 194 86.0994V86.6994H181.2C180.6 85.7994 179.9 84.2994 179.9 79.6994V53.8994C179.9 50.0994 179.2 48.4994 175.1 48.4994H171.8L171.7 86.5994ZM171.7 36.3994H175.1C178.7 36.3994 179.8 34.0994 179.8 30.2994V18.3994C179.8 14.6994 179 12.8994 175.1 12.8994H171.7V36.3994Z" fill="#FFF718"/>
<path d="M218.8 13.6994V86.4994H206V13.6994H195.1V1.39941H229.7V13.7994L218.8 13.6994Z" fill="#FFF718"/>
<path d="M264.3 70.4998H254.9L253.2 86.4998H241.6L252 1.2998H267.3L278.4 86.4998H265.9L264.3 70.4998ZM262.9 57.7998L259.5 26.2998L256.2 57.7998H262.9Z" fill="#FFF718"/>
<path d="M292.2 1.39941L303.3 47.0994V1.39941H315.1V86.5994H304.6L292.2 37.5994V86.5994H280.5V1.39941H292.2Z" fill="#FFF718"/>
<path d="M319.899 1.39941H339.799C350.899 1.39941 354.299 7.69941 354.299 17.7994V69.6994C354.299 80.0994 350.399 86.5994 339.799 86.5994H319.999V1.39941H319.899ZM332.899 74.1994H335.999C339.899 74.1994 340.999 72.0994 340.999 67.5994V19.5994C340.999 14.6994 339.699 12.9994 336.499 12.9994H332.799V74.1994H332.899Z" fill="#FFF718"/>
<path d="M0.299805 91H20.0998C31.1998 91 34.5998 97.3 34.5998 107.4V159.3C34.5998 169.7 30.6998 176.2 20.0998 176.2H0.299805V91ZM13.1998 163.9H16.2998C20.1998 163.9 21.2998 161.8 21.2998 157.3V109.3C21.2998 104.4 19.9998 102.7 16.7998 102.7H13.0998V163.9H13.1998Z" fill="#FFF718"/>
<path d="M68.7002 91V103.4H52.2002V125.7H65.1002V138.6H52.2002V163.2H69.4002V176.1H39.2002V91H68.7002Z" fill="#FFF718"/>
<path d="M90.0002 177.099H87.5002C77.2002 177.099 71.7002 171.499 71.7002 160.999V143.899H84.5002V158.799C84.5002 162.699 85.8002 164.799 88.7002 164.799C91.8002 164.799 92.9002 162.699 92.9002 157.499V155.599C92.9002 149.499 92.3002 147.399 87.6002 141.299L79.4002 130.799C73.9002 123.699 72.3002 118.199 72.3002 109.699V106.999C72.3002 95.6994 78.0002 90.3994 88.2002 90.3994H90.6002C101.3 90.3994 105.4 95.0994 105.4 105.199V119.199H92.9002V106.899C92.9002 103.999 92.3002 101.899 89.2002 101.899C86.1002 101.899 85.4002 103.799 85.4002 107.899V109.499C85.4002 114.299 86.3002 116.899 90.7002 122.599L98.9002 133.199C104.7 140.799 106.6 145.099 106.6 154.699V157.399C106.7 169.699 101.3 177.099 90.0002 177.099Z" fill="#FFF718"/>
<path d="M123.299 176.2H110.399V91H123.299V176.2Z" fill="#FFF718"/>
<path d="M140.1 177.399C132.5 177.399 127.7 170.599 127.7 161.799V108.499C127.7 98.9992 131.4 90.1992 143.6 90.1992H146.1C160 90.1992 161.6 99.1992 161.6 109.299V117.999H149V108.399C149 104.599 148.1 102.599 144.9 102.599C142.2 102.599 140.9 104.699 140.9 108.399V158.199C140.9 162.199 142.5 164.299 145.1 164.299C148.4 164.299 149.9 161.999 149.9 158.799V137.499H144.1V124.399H162.2V176.199H154.9C154.8 175.699 153.8 171.499 152.7 167.799C151.8 170.699 147.4 177.299 140.9 177.299H140.1V177.399Z" fill="#FFF718"/>
<path d="M178.4 91L189.5 136.7V91H201.3V176.2H190.8L178.4 127.2V176.2H166.7V91H178.4Z" fill="#FFF718"/>
<path d="M235.1 177.099H232.6C222.3 177.099 216.8 171.499 216.8 160.999V143.899H229.6V158.799C229.6 162.699 230.9 164.799 233.8 164.799C236.9 164.799 238 162.699 238 157.499V155.599C238 149.499 237.4 147.399 232.7 141.299L224.5 130.799C219 123.699 217.4 118.199 217.4 109.699V106.999C217.4 95.6994 223.1 90.3994 233.3 90.3994H235.7C246.3 90.3994 250.5 95.0994 250.5 105.199V119.199H238V106.899C238 103.999 237.4 101.899 234.3 101.899C231.2 101.899 230.5 103.799 230.5 107.899V109.499C230.5 114.299 231.4 116.899 235.8 122.599L244 133.199C249.8 140.799 251.7 145.099 251.7 154.699V157.399C251.8 169.699 246.4 177.099 235.1 177.099Z" fill="#FFF718"/>
<path d="M276.6 158.9V139.1H289.3V158.8C289.3 168 286.3 177.2 273.8 177.2H270.9C257.8 177.2 255 167.8 255 159.2V107.2C255 98.4996 258.8 90.0996 270.5 90.0996H273.5C287.7 90.0996 289.3 99.4996 289.3 107.8V123H276.6V108C276.6 104.3 275.5 102.4 272.2 102.4C269 102.4 268.2 104.2 268.2 108V158.6C268.2 162.4 269.5 164.4 272.3 164.4C275.5 164.7 276.6 162.4 276.6 158.9Z" fill="#FFF718"/>
<path d="M315.2 138.8H306.4V176.2H293.5V91H306.4V125.1H315.2V91H328.1V176.2H315.2V138.8Z" fill="#FFF718"/>
<path d="M368 157.199C368 169.099 364 177.199 351.5 177.199H349.3C336.9 177.199 332.6 169.099 332.6 157.199V109.799C332.6 97.9992 337.1 90.1992 349.2 90.1992H351.4C364 90.1992 368 97.9992 368 109.699V157.199ZM354.8 109.099C354.8 104.599 353.3 102.599 350.3 102.599C347 102.599 345.7 104.799 345.7 109.099V158.099C345.7 161.799 346.7 164.599 350.4 164.599C353.8 164.599 354.8 161.699 354.8 158.099V109.099Z" fill="#FFF718"/>
<path d="M407.5 157.199C407.5 169.099 403.5 177.199 391 177.199H388.8C376.4 177.199 372.1 169.099 372.1 157.199V109.799C372.1 97.9992 376.6 90.1992 388.7 90.1992H390.9C403.5 90.1992 407.5 97.9992 407.5 109.699V157.199ZM394.3 109.099C394.3 104.599 392.8 102.599 389.8 102.599C386.5 102.599 385.2 104.799 385.2 109.099V158.099C385.2 161.799 386.2 164.599 389.9 164.599C393.3 164.599 394.3 161.699 394.3 158.099V109.099Z" fill="#FFF718"/>
<path d="M424.9 91V163H440.7V176.2H412V91H424.9Z" fill="#FFF718"/>
</svg>
