<svg width="701" height="701" viewBox="0 0 701 701" fill="none" xmlns="http://www.w3.org/2000/svg">
<path fill-rule="evenodd" clip-rule="evenodd" d="M683.668 350.213C683.668 534.307 534.428 683.547 350.335 683.547C166.24 683.547 17.001 534.307 17.001 350.213C17.001 166.118 166.24 16.8799 350.335 16.8799C534.428 16.8799 683.668 166.118 683.668 350.213ZM362.278 262.961C329.858 276.447 265.06 304.357 167.887 346.693C152.107 352.97 143.841 359.11 143.089 365.11C141.817 375.257 154.521 379.25 171.82 384.69C174.173 385.43 176.611 386.197 179.11 387.007C196.13 392.54 219.024 399.013 230.925 399.27C241.721 399.503 253.771 395.053 267.074 385.917C357.865 324.63 404.735 293.653 407.675 292.983C409.751 292.513 412.628 291.92 414.578 293.653C416.528 295.387 416.335 298.667 416.128 299.547C414.871 304.913 365.005 351.273 339.198 375.263C331.155 382.743 325.448 388.047 324.281 389.26C321.668 391.973 319.005 394.54 316.445 397.007C300.635 412.25 288.775 423.68 317.101 442.347C330.711 451.317 341.605 458.733 352.471 466.133C364.338 474.217 376.175 482.277 391.491 492.317C395.391 494.873 399.118 497.53 402.748 500.117C416.558 509.963 428.965 518.81 444.295 517.397C453.201 516.58 462.401 508.203 467.075 483.223C478.118 424.19 499.825 296.28 504.841 243.574C505.281 238.956 504.728 233.046 504.281 230.452C503.838 227.857 502.911 224.161 499.538 221.424C495.545 218.184 489.378 217.5 486.621 217.547C474.085 217.77 454.848 224.458 362.278 262.961Z" stroke="#FFF718" stroke-width="33.3333" stroke-linejoin="round"/>
</svg>
