<svg width="909" height="601" viewBox="0 0 909 601" fill="none" xmlns="http://www.w3.org/2000/svg">
<path d="M872.619 514.682C856.02 547.557 813.202 577.332 772.994 583.907C768.88 584.582 670.617 600.207 455.166 600.207H454.598C239.175 600.207 140.827 584.582 136.741 583.932C96.534 577.332 53.6877 547.557 37.0599 514.657C35.5844 511.732 0.910156 441.382 0.910156 300.207C0.910156 159.032 35.5844 88.657 37.0599 85.732C53.6877 52.832 96.534 23.082 136.741 16.507C140.827 15.832 239.175 0.207031 454.598 0.207031C670.617 0.207031 768.88 15.832 772.966 16.482C813.202 23.082 856.02 52.832 872.647 85.707C874.123 88.657 908.882 159.032 908.882 300.207C908.882 441.382 874.123 511.732 872.619 514.682ZM829.801 105.957C820.948 88.432 784.117 59.182 762.609 55.657C761.701 55.507 664.46 40.207 455.166 40.207C245.333 40.207 148.006 55.507 147.07 55.657C125.562 59.182 88.7592 88.432 79.8778 106.057C79.5941 106.582 48.6086 170.932 48.6086 300.207C48.6086 429.457 79.5941 493.807 79.9346 494.457C88.7592 511.982 125.562 539.232 147.098 542.757C148.006 542.907 245.333 558.207 454.598 558.207H455.166C664.46 558.207 761.701 542.907 762.637 542.757C784.146 539.232 820.948 511.982 829.829 494.357C830.113 493.807 861.155 429.457 861.155 300.207C861.155 170.957 830.113 106.582 829.801 105.957ZM385.108 438.357C380.511 440.932 375.233 442.207 369.984 442.207C365.274 442.207 360.563 441.182 356.279 439.082C347.227 434.682 341.609 426.307 341.609 417.207V182.207C341.609 173.132 347.17 164.782 356.165 160.382C365.16 155.957 376.198 156.157 384.909 160.932L612.448 277.832C620.762 282.357 625.87 290.357 625.898 298.982C625.927 307.607 620.933 315.657 612.647 320.232L385.108 438.357ZM382.497 212.057V387.932L566.594 299.282L382.497 212.057Z" fill="#FFF718"/>
</svg>
